REM DIRINDEX 1\2,1\3,1\4,1\5\6,1\5\7,1\8
REM DIRNAME cjc115,folder01,folder02,folder03,folder04,folder05,folder06,folder07
TITLE ""
FILE "097 Åy097ÅzUnit6 (1093 accompany_1104 disgust).mp3" MP3
  TRACK 01 AUDIO
    TITLE "0:"
    INDEX 01 00:00:00
  TRACK 02 AUDIO
    TITLE "2:cjc115_3802"
    INDEX 01 00:00:07
  TRACK 03 AUDIO
    TITLE "0:"
    INDEX 01 00:01:26
  TRACK 04 AUDIO
    TITLE "3:cjc115_3803"
    INDEX 01 00:01:32
  TRACK 05 AUDIO
    TITLE "0:"
    INDEX 01 00:03:33
  TRACK 06 AUDIO
    TITLE "4:cjc115_3804"
    INDEX 01 00:03:35
  TRACK 07 AUDIO
    TITLE "0:"
    INDEX 01 00:07:00
  TRACK 08 AUDIO
    TITLE "2:cjc115_3805"
    INDEX 01 00:08:09
  TRACK 09 AUDIO
    TITLE "0:"
    INDEX 01 00:09:04
  TRACK 10 AUDIO
    TITLE "3:cjc115_3806"
    INDEX 01 00:09:12
  TRACK 11 AUDIO
    TITLE "0:"
    INDEX 01 00:11:33
  TRACK 12 AUDIO
    TITLE "4:cjc115_3807"
    INDEX 01 00:11:39
  TRACK 13 AUDIO
    TITLE "0:"
    INDEX 01 00:16:12
  TRACK 14 AUDIO
    TITLE "2:cjc115_3808"
    INDEX 01 00:17:21
  TRACK 15 AUDIO
    TITLE "0:"
    INDEX 01 00:18:33
  TRACK 16 AUDIO
    TITLE "3:cjc115_3809"
    INDEX 01 00:18:42
  TRACK 17 AUDIO
    TITLE "0:"
    INDEX 01 00:22:27
  TRACK 18 AUDIO
    TITLE "4:cjc115_3810"
    INDEX 01 00:22:30
  TRACK 19 AUDIO
    TITLE "0:"
    INDEX 01 00:25:52
  TRACK 20 AUDIO
    TITLE "2:cjc115_3811"
    INDEX 01 00:26:58
  TRACK 21 AUDIO
    TITLE "0:"
    INDEX 01 00:28:00
  TRACK 22 AUDIO
    TITLE "3:cjc115_3812"
    INDEX 01 00:28:12
  TRACK 23 AUDIO
    TITLE "0:"
    INDEX 01 00:29:19
  TRACK 24 AUDIO
    TITLE "4:cjc115_3813"
    INDEX 01 00:29:23
  TRACK 25 AUDIO
    TITLE "0:"
    INDEX 01 00:32:54
  TRACK 26 AUDIO
    TITLE "2:cjc115_3814"
    INDEX 01 00:33:60
  TRACK 27 AUDIO
    TITLE "0:"
    INDEX 01 00:35:04
  TRACK 28 AUDIO
    TITLE "3:cjc115_3815"
    INDEX 01 00:35:14
  TRACK 29 AUDIO
    TITLE "0:"
    INDEX 01 00:36:46
  TRACK 30 AUDIO
    TITLE "4:cjc115_3816"
    INDEX 01 00:36:48
  TRACK 31 AUDIO
    TITLE "0:"
    INDEX 01 00:39:27
  TRACK 32 AUDIO
    TITLE "2:cjc115_3817"
    INDEX 01 00:40:32
  TRACK 33 AUDIO
    TITLE "0:"
    INDEX 01 00:41:49
  TRACK 34 AUDIO
    TITLE "3:cjc115_3818"
    INDEX 01 00:41:51
  TRACK 35 AUDIO
    TITLE "0:"
    INDEX 01 00:43:66
  TRACK 36 AUDIO
    TITLE "4:cjc115_3819"
    INDEX 01 00:43:74
  TRACK 37 AUDIO
    TITLE "0:"
    INDEX 01 00:47:48
  TRACK 38 AUDIO
    TITLE "2:cjc115_3820"
    INDEX 01 00:48:55
  TRACK 39 AUDIO
    TITLE "0:"
    INDEX 01 00:49:72
  TRACK 40 AUDIO
    TITLE "3:cjc115_3821"
    INDEX 01 00:50:05
  TRACK 41 AUDIO
    TITLE "0:"
    INDEX 01 00:51:30
  TRACK 42 AUDIO
    TITLE "4:cjc115_3822"
    INDEX 01 00:51:36
  TRACK 43 AUDIO
    TITLE "0:"
    INDEX 01 00:54:27
  TRACK 44 AUDIO
    TITLE "2:cjc115_3823"
    INDEX 01 00:55:30
  TRACK 45 AUDIO
    TITLE "0:"
    INDEX 01 00:56:31
  TRACK 46 AUDIO
    TITLE "3:cjc115_3824"
    INDEX 01 00:56:45
  TRACK 47 AUDIO
    TITLE "0:"
    INDEX 01 00:58:22
  TRACK 48 AUDIO
    TITLE "4:cjc115_3825"
    INDEX 01 00:58:28
  TRACK 49 AUDIO
    TITLE "0:"
    INDEX 01 01:02:73
  TRACK 50 AUDIO
    TITLE "2:cjc115_3826"
    INDEX 01 01:04:05
  TRACK 51 AUDIO
    TITLE "0:"
    INDEX 01 01:05:22
  TRACK 52 AUDIO
    TITLE "3:cjc115_3827"
    INDEX 01 01:05:30
  TRACK 53 AUDIO
    TITLE "0:"
    INDEX 01 01:06:57
  TRACK 54 AUDIO
    TITLE "4:cjc115_3828"
    INDEX 01 01:06:61
  TRACK 55 AUDIO
    TITLE "0:"
    INDEX 01 01:10:24
  TRACK 56 AUDIO
    TITLE "2:cjc115_3829"
    INDEX 01 01:11:33
  TRACK 57 AUDIO
    TITLE "0:"
    INDEX 01 01:12:40
  TRACK 58 AUDIO
    TITLE "3:cjc115_3830"
    INDEX 01 01:12:48
  TRACK 59 AUDIO
    TITLE "0:"
    INDEX 01 01:14:27
  TRACK 60 AUDIO
    TITLE "4:cjc115_3831"
    INDEX 01 01:14:31
  TRACK 61 AUDIO
    TITLE "0:"
    INDEX 01 01:17:12
  TRACK 62 AUDIO
    TITLE "2:cjc115_3832"
    INDEX 01 01:18:17
  TRACK 63 AUDIO
    TITLE "0:"
    INDEX 01 01:19:36
  TRACK 64 AUDIO
    TITLE "3:cjc115_3833"
    INDEX 01 01:19:46
  TRACK 65 AUDIO
    TITLE "0:"
    INDEX 01 01:21:69
  TRACK 66 AUDIO
    TITLE "4:cjc115_3834"
    INDEX 01 01:21:70
  TRACK 67 AUDIO
    TITLE "0:"
    INDEX 01 01:26:07
  TRACK 68 AUDIO
    TITLE "2:cjc115_3835"
    INDEX 01 01:27:10
  TRACK 69 AUDIO
    TITLE "0:"
    INDEX 01 01:28:43
  TRACK 70 AUDIO
    TITLE "3:cjc115_3836"
    INDEX 01 01:28:49
  TRACK 71 AUDIO
    TITLE "0:"
    INDEX 01 01:31:06
  TRACK 72 AUDIO
    TITLE "4:cjc115_3837"
    INDEX 01 01:31:10
  TRACK 73 AUDIO
    TITLE "0:"
    INDEX 01 01:36:09
